<svg width="1920" height="974" viewBox="0 0 1920 974" fill="none" xmlns="http://www.w3.org/2000/svg">
<mask id="mask0_4_20" style="mask-type:luminance" maskUnits="userSpaceOnUse" x="0" y="0" width="1920" height="974">
<path d="M1920 0H0V974H1920V0Z" fill="white"/>
</mask>
<g mask="url(#mask0_4_20)">
<path d="M1920 0H0V974H1920V0Z" fill="#6699CC"/>
<path d="M0 867.811C150.919 885.471 319.115 945.927 445.178 843.374C571.118 740.922 578.392 524.018 633.661 352.324C685.548 191.134 754.83 40.0935 759.456 -132.942C764.706 -329.339 762.594 -544.706 661.742 -698.118C560.001 -852.882 389.125 -920.684 227.291 -942.446C79.672 -962.296 -56.342 -874.359 -196.189 -813.482C-327.634 -756.264 -470.766 -721.375 -566.006 -597.119C-662.824 -470.805 -714.885 -299.023 -722.735 -126.515C-730.236 38.3159 -665.239 188.398 -608.577 338.377C-552.066 487.957 -503.412 649.529 -393.382 745.25C-280.977 843.037 -137.517 851.719 0 867.811Z" fill="#4F8AC4"/>
<path d="M1920 1558.09C2010.37 1565.19 2090.4 1499.99 2170.53 1448.62C2257.91 1392.61 2373.35 1357.91 2407.93 1245.3C2442.64 1132.25 2368.79 1015.72 2338.78 900.692C2313.93 805.412 2294.66 710.398 2247.15 628.863C2195.79 540.714 2135.97 458.395 2055.09 413.837C1967.15 365.386 1861.22 318.078 1773.88 368.118C1686.5 418.18 1691.3 577.492 1623.45 661.15C1547.97 754.222 1403.09 755.551 1361.76 876.28C1320.7 996.211 1357.61 1147.07 1421.44 1251.2C1482.15 1350.24 1598.83 1355.08 1689.41 1410.84C1768.47 1459.5 1831.6 1551.15 1920 1558.09Z" fill="#7DA8D4"/>
</g>
</svg>
