<svg width="50" height="50" viewBox="0 0 50 50" fill="none" xmlns="http://www.w3.org/2000/svg">
<path id="Subtract" fill-rule="evenodd" clip-rule="evenodd" d="M3.5 3.5C0 7.03333 0 12.6833 0 24V26C0 37.3 0 42.95 3.5 46.5C7.03333 50 12.6833 50 24 50H26C37.3 50 42.95 50 46.5 46.5C50 42.9667 50 37.3167 50 26V24C50 12.7 50 7.05 46.5 3.5C42.9667 0 37.3167 0 26 0H24C12.7 0 7.05 0 3.5 3.5ZM8.43333 15.2167C8.69999 28.2167 15.2 36.0167 26.6 36.0167H27.2667V28.5833C31.45 29 34.6167 32.0667 35.8833 36.0167H41.8C41.1931 33.7721 40.1174 31.6817 38.6436 29.8833C37.1698 28.0849 35.3316 26.6194 33.25 25.5833C35.1153 24.4475 36.7262 22.9391 37.9823 21.1526C39.2383 19.366 40.1124 17.3396 40.55 15.2H35.1833C34.0167 19.3333 30.55 23.0833 27.2667 23.4333V15.2167H21.8833V29.6167C18.55 28.7833 14.35 24.75 14.1667 15.2167H8.43333Z" fill="white"/>
</svg>
