<svg width="349" height="92" viewBox="0 0 349 92" fill="none" xmlns="http://www.w3.org/2000/svg">
<path fill-rule="evenodd" clip-rule="evenodd" d="M72.004 69.1518L70.1257 91.1522L63.5854 83.2521L64.4882 81.1926L66.5095 84.1269L70.7441 66.9176L77.1668 65.618C82.3663 64.5665 82.8066 63.6663 81.5108 56.3601L82.2555 54.8896C83.299 53.2473 83.8804 52.557 82.2854 50.8331C83.8062 49.0834 84.2957 48.9794 83.6258 47.7104L83.6205 47.6998L83.6152 47.69L83.6095 47.6802L83.6043 47.67L83.599 47.6597L83.5937 47.6495L83.5921 47.6469L83.5884 47.6401L83.5831 47.6302L83.5778 47.62L83.5721 47.6106L83.5672 47.6011L83.5619 47.5913L83.5585 47.5852L83.557 47.5818L83.5464 47.5629L83.5411 47.5531L83.5358 47.5444L83.5309 47.5349L83.526 47.5258L83.5252 47.5251L83.5207 47.5164L83.5154 47.5073L83.5101 47.4978L83.5048 47.4888L83.5002 47.4801L83.4949 47.4706L83.493 47.4687L83.4896 47.4619L83.4847 47.4536L83.4798 47.4449L83.4499 47.3927L83.445 47.384L83.4401 47.3757L83.4352 47.3674L83.4306 47.3602V47.3594L83.4257 47.3503L83.4204 47.3428L83.4159 47.3341L83.4114 47.3258L83.4064 47.3182L83.4019 47.3102L83.4004 47.308L83.397 47.3019L83.3921 47.2944L83.3875 47.286L83.3826 47.2789L83.3781 47.2705L83.3735 47.263L83.3709 47.2588L83.369 47.2547L83.3641 47.2471L83.3599 47.2395L83.355 47.2323L83.3504 47.2248L83.3463 47.2172L83.3421 47.2104L83.3418 47.2096L83.3368 47.2021L83.3323 47.1945L83.3281 47.187L83.324 47.1805L83.3191 47.173L83.3145 47.165L83.3141 47.1639L83.3107 47.1582L83.31 47.1578C83.2098 46.963 83.0929 46.7421 82.9594 46.4868L82.9563 46.4721L82.9556 46.4668V46.4664L82.9522 46.4456V46.4415L82.9499 46.4184L82.9495 46.4165V46.415C82.9488 46.3983 82.9488 46.3821 82.9495 46.3658C82.9514 46.3405 82.9552 46.3151 82.9613 46.2898L82.9624 46.2856C82.9726 46.2455 82.9889 46.2055 83.0119 46.162L83.0135 46.1604C83.0233 46.1415 83.0343 46.1241 83.0464 46.1048V46.1041L83.0566 46.089L83.0653 46.0761L83.0672 46.0742C83.0868 46.0462 83.1095 46.0167 83.1349 45.9865L83.1409 45.9793L83.1549 45.9619L83.1613 45.9547L83.1844 45.9286L83.1905 45.9225L83.2007 45.9108L83.2211 45.8889L83.2336 45.8749L83.2514 45.856L83.2536 45.8541L83.2695 45.8378L83.288 45.8185L83.2888 45.8181L83.3074 45.7992L83.3255 45.7811L83.327 45.7796L83.3648 45.7429L83.3682 45.7395L83.3898 45.7191L83.4057 45.7032L83.4121 45.6979L83.4352 45.6759L83.4492 45.6623L83.4583 45.654L83.4825 45.6313L83.4949 45.6199L83.507 45.609L83.5324 45.5859L83.5426 45.5761L83.5581 45.5617L83.5846 45.5379L83.5929 45.5303L83.6118 45.5133L83.6394 45.4887L83.6455 45.4834L83.6682 45.463L83.6973 45.4369L83.7003 45.4342L83.7268 45.4108L83.7574 45.3836L83.967 45.1978L84.1447 45.0386L84.1693 45.0159C89.1271 40.5714 86.0132 42.1482 81.5206 35.8057C80.2206 33.9709 79.3019 31.6603 78.3435 27.3402L78.3083 27.181L78.297 27.1291L78.2504 26.9151C85.6985 10.8411 69.1537 9.33542 58.7104 8.54606L6.57965 6.45597L7.98024 8.20376L5.94499 8.19846L0 0L58.6813 5.52553C70.9624 6.72337 89.5432 10.118 80.842 27.4192C81.6813 31.3086 83.0358 33.8813 84.7764 36.0353C89.665 42.0831 91.5841 41.4995 86.7659 45.6555C85.363 46.8658 85.8222 46.5791 86.2927 48.2123C86.5374 49.0626 86.3668 49.5153 85.0714 50.962C86.7545 53.503 85.5309 53.877 84.0698 56.4982C84.9802 64.3097 84.8876 66.1524 81.4654 67.0526C79.5262 67.5625 76.5128 68.0734 72.0044 69.1499L72.004 69.1518Z" fill="#A2D9F7"/>
<path fill-rule="evenodd" clip-rule="evenodd" d="M6.57861 6.45784L58.7094 8.54792C69.1526 9.33691 85.6975 10.843 78.2494 26.9169C79.2422 31.512 80.1772 33.913 81.5196 35.8072C86.132 42.3188 89.2929 40.4821 83.7568 45.385C82.5139 46.4853 82.8963 46.3283 83.6255 47.7108C84.2954 48.9797 83.8059 49.0837 82.2851 50.8334C83.8801 52.5578 83.2987 53.2476 82.2552 54.8899L81.5105 56.3605C82.8067 63.6667 82.366 64.5669 77.1665 65.6183L70.7438 66.9179L66.5092 84.1273L62.8752 78.8518L64.3022 75.7927L64.6135 76.2409L69.4847 64.7284L75.1771 63.7503C79.5305 63.0021 80.5036 61.7956 78.8701 55.6732L79.7037 53.9421C80.6564 52.4677 80.4598 52.1425 79.3103 50.6197C81.7408 48.7675 81.3289 48.4725 80.366 47.2486C79.3603 45.9705 79.3391 46.1892 80.5354 45.1914C85.0401 41.4345 83.9372 42.5472 79.5713 37.3424C77.353 34.6982 77.0901 33.0408 75.657 26.4124C81.9303 11.0703 66.5451 11.8453 57.4015 11.6672L14.1023 11.8098L14.6678 12.7122L11.6336 12.7655L6.57861 6.45746V6.45784Z" fill="#2564AD"/>
<path fill-rule="evenodd" clip-rule="evenodd" d="M64.6136 76.2405L69.4848 64.728L75.1772 63.7499C79.5306 63.0018 80.5037 61.7952 78.8702 55.6729L79.7038 53.9417C80.6562 52.4674 80.4599 52.1421 79.3104 50.6194C81.7409 48.7672 81.329 48.4722 80.3661 47.2482C79.3604 45.9702 79.3392 46.1896 80.5355 45.191C85.0402 41.4341 83.9373 42.5468 79.5714 37.3421C77.3531 34.6979 77.0902 33.0408 75.6571 26.412C81.9304 11.07 66.5453 11.845 57.4016 11.6668L14.1021 11.8094L18.3087 18.5237L57.8793 15.3723C65.2173 14.7577 78.5676 11.9713 72.898 25.7191C74.2093 31.4069 74.5402 35.5598 78.7404 39.8107C81.2617 41.9863 80.5026 42.7375 77.2794 44.6558C76.1023 45.5719 76.4416 46.2168 77.4628 47.4052C78.3513 48.4377 78.0218 49.1329 75.982 50.4397C76.5047 50.9291 77.2408 51.0263 77.4753 52.0649C77.6375 52.779 76.782 53.1073 76.0444 55.7016C77.2086 59.2437 78.3096 61.0497 74.6435 61.6477L68.3293 62.6761L61 71.0342L64.6144 76.2405H64.6136Z" fill="#E31E24"/>
<path d="M117.726 19.9198H115.795L109.459 12.973V19.9198H107.866V6.21484H109.459V12.8516L115.636 6.21484H117.464L111.399 12.8705L117.726 19.9198Z" fill="white"/>
<path d="M131.505 13.0488C131.505 15.2417 130.95 16.967 129.842 18.223C128.733 19.4789 127.191 20.1071 125.216 20.1071C123.197 20.1071 121.64 19.4905 120.544 18.2561C119.447 17.0217 118.898 15.28 118.898 13.0299C118.898 10.7995 119.448 9.06952 120.548 7.84154C121.647 6.61356 123.21 6 125.235 6C127.204 6 128.741 6.62475 129.847 7.87426C130.953 9.12506 131.505 10.8486 131.505 13.0488ZM120.584 13.0488C120.584 14.9046 120.981 16.3121 121.771 17.2714C122.562 18.2311 123.71 18.7112 125.216 18.7112C126.734 18.7112 127.88 18.2333 128.656 17.2766C129.431 16.3207 129.818 14.9106 129.818 13.0488C129.818 11.2051 129.433 9.80665 128.66 8.8538C127.889 7.90139 126.747 7.42389 125.234 7.42389C123.716 7.42389 122.562 7.90354 121.771 8.8637C120.981 9.82215 120.584 11.2181 120.584 13.0488Z" fill="white"/>
<path d="M140.626 19.9198L135.976 7.77178H135.902C135.989 8.73409 136.033 9.87725 136.033 11.2025V19.9198H134.561V6.21442H136.961L141.301 17.5194H141.376L145.754 6.21442H148.135V19.9198H146.542V11.0897C146.542 10.077 146.585 8.97693 146.672 7.79029H146.598L141.911 19.9198H140.627H140.626Z" fill="white"/>
<path d="M151.913 6.21484H153.402V13.8359C153.402 15.2421 153.358 16.514 153.272 17.6516H153.345L161.032 6.21484H162.776V19.9202H161.277V12.3741C161.277 11.1181 161.33 9.79931 161.436 8.41848H161.351L153.656 19.9207H151.913V6.21526V6.21484Z" fill="white"/>
<path d="M170.745 19.9198H169.151V7.63098H164.81V6.21484H175.085V7.63098H170.745V19.9198Z" fill="white"/>
<path d="M184.786 19.9198H177.147V6.21484H184.786V7.63098H178.74V12.046H184.42V13.4514H178.74V18.4946H184.786V19.9198Z" fill="white"/>
<path d="M192.042 19.9198H190.448V7.63098H186.108V6.21484H196.381V7.63098H192.042V19.9198Z" fill="white"/>
<path d="M213.658 19.9198H212.064V7.63098H205.024V19.9198H203.431V6.21484H213.658V19.9198Z" fill="white"/>
<path d="M229.321 13.0488C229.321 15.2417 228.766 16.967 227.657 18.223C226.548 19.4789 225.006 20.1071 223.032 20.1071C221.013 20.1071 219.456 19.4905 218.359 18.2561C217.261 17.0217 216.713 15.28 216.713 13.0299C216.713 10.7995 217.262 9.06952 218.362 7.84154C219.463 6.61356 221.026 6 223.05 6C225.019 6 226.555 6.62475 227.662 7.87426C228.768 9.12506 229.321 10.8486 229.321 13.0488ZM218.4 13.0488C218.4 14.9046 218.795 16.3121 219.587 17.2714C220.377 18.2311 221.525 18.7112 223.031 18.7112C224.549 18.7112 225.695 18.2333 226.471 17.2766C227.246 16.3207 227.633 14.9106 227.633 13.0488C227.633 11.2051 227.248 9.80665 226.476 8.8538C225.704 7.90139 224.561 7.42389 223.049 7.42389C221.531 7.42389 220.377 7.90354 219.587 8.8637C218.795 9.82215 218.4 11.2181 218.4 13.0488Z" fill="white"/>
<path d="M246.054 10.2088C246.054 11.5961 245.58 12.663 244.633 13.4101C243.687 14.1567 242.332 14.53 240.57 14.53H238.957V19.9202H237.364V6.21484H240.917C244.341 6.21484 246.054 7.54658 246.054 10.2088ZM238.957 13.1616H240.392C241.805 13.1616 242.825 12.9326 243.457 12.4774C244.088 12.021 244.404 11.2899 244.404 10.2833C244.404 9.37779 244.107 8.70266 243.513 8.25832C242.919 7.81483 241.995 7.59308 240.739 7.59308H238.958V13.1616H238.957Z" fill="white"/>
<path d="M257.537 19.9199L255.831 15.5604H250.337L248.65 19.9199H247.039L252.456 6.15894H253.796L259.187 19.9199H257.537H257.537ZM255.334 14.1266L253.74 9.8799C253.534 9.34341 253.322 8.68335 253.103 7.90187C252.966 8.50208 252.768 9.16128 252.512 9.8799L250.901 14.1266H255.334H255.334Z" fill="white"/>
<path d="M269.02 9.42084C269.02 10.3207 268.733 11.0523 268.161 11.6146C267.59 12.176 266.801 12.5326 265.795 12.6833V12.7577C266.938 12.9145 267.806 13.2736 268.397 13.8355C268.987 14.3982 269.283 15.1327 269.283 16.0382C269.283 17.3196 268.804 18.3177 267.848 19.0337C266.892 19.7497 265.542 20.1067 263.798 20.1067C262.205 20.1067 260.899 19.8599 259.88 19.3657V17.8849C260.48 18.173 261.128 18.3943 261.825 18.551C262.522 18.7069 263.193 18.7853 263.836 18.7853C265.073 18.7853 266.01 18.551 266.643 18.0821C267.277 17.6132 267.595 16.939 267.595 16.0572C267.595 15.2197 267.243 14.5851 266.541 14.1541C265.837 13.7226 264.789 13.5078 263.395 13.5078H261.351V12.167H263.311C264.593 12.167 265.584 11.9371 266.286 11.4781C266.991 11.0182 267.342 10.3763 267.342 9.55131C267.342 8.8822 267.089 8.34872 266.582 7.94916C266.076 7.54873 265.395 7.34852 264.539 7.34852C263.851 7.34852 263.229 7.42688 262.673 7.58274C262.117 7.73947 261.473 8.04905 260.742 8.51105L259.955 7.44238C260.585 6.97435 261.293 6.61913 262.078 6.37931C262.861 6.13776 263.675 6.01807 264.519 6.01807C265.926 6.01807 267.027 6.32592 267.823 6.94077C268.62 7.55691 269.019 8.38317 269.019 9.42041L269.02 9.42084Z" fill="white"/>
<path d="M272.226 6.21484H276.096C277.915 6.21484 279.231 6.48739 280.043 7.03077C280.855 7.57457 281.262 8.43441 281.262 9.60857C281.262 10.4215 281.035 11.091 280.582 11.6202C280.13 12.1485 279.469 12.4908 278.599 12.6462V12.7401C280.68 13.0962 281.721 14.1907 281.721 16.0206C281.721 17.2456 281.307 18.2014 280.479 18.8886C279.65 19.5766 278.492 19.9202 277.005 19.9202H272.225V6.21484H272.226ZM273.819 12.083H276.444C277.568 12.083 278.378 11.9065 278.871 11.5539C279.365 11.2012 279.612 10.6062 279.612 9.76788C279.612 8.99974 279.338 8.44518 278.788 8.10417C278.238 7.76402 277.362 7.59351 276.163 7.59351H273.819V12.083ZM273.819 13.4337V18.5609H276.678C277.784 18.5609 278.617 18.3461 279.176 17.919C279.735 17.4901 280.016 16.8201 280.016 15.9073C280.016 15.0574 279.729 14.4322 279.158 14.0326C278.586 13.6335 277.715 13.4333 276.546 13.4333H273.819V13.4337Z" fill="white"/>
<path d="M284.683 6.21484H286.174V13.8359C286.174 15.2421 286.129 16.514 286.042 17.6516H286.117L293.803 6.21484H295.547V19.9202H294.048V12.3741C294.048 11.1181 294.1 9.79931 294.207 8.41848H294.122L286.427 19.9207H284.683V6.21526V6.21484Z" fill="white"/>
<path d="M303.516 19.9198H301.922V7.63098H297.582V6.21484H307.855V7.63098H303.516V19.9198Z" fill="white"/>
<path d="M309.936 6.21484H311.427V13.8359C311.427 15.2421 311.383 16.514 311.295 17.6516H311.37L319.057 6.21484H320.801V19.9202H319.301V12.3741C319.301 11.1181 319.353 9.79931 319.46 8.41848H319.376L311.68 19.9207H309.936V6.21526V6.21484Z" fill="white"/>
<path d="M341.63 13.0488C341.63 15.2607 341.097 16.9902 340.031 18.2372C338.966 19.4841 337.483 20.1071 335.584 20.1071C333.702 20.1071 332.229 19.5336 331.163 18.387C330.098 17.2408 329.531 15.6017 329.462 13.4703H326.144V19.9198H324.551V6.21443H326.144V12.0456H329.481C329.625 10.102 330.224 8.60881 331.276 7.56512C332.329 6.52099 333.752 6 335.546 6C337.464 6 338.958 6.62605 340.026 7.879C341.095 9.13195 341.63 10.8551 341.63 13.0488ZM331.131 13.0488C331.131 14.8981 331.502 16.3039 332.246 17.2667C332.989 18.229 334.084 18.7112 335.527 18.7112C336.989 18.7112 338.09 18.2333 338.831 17.2766C339.571 16.3207 339.942 14.9106 339.942 13.0488C339.942 11.1862 339.575 9.78384 338.84 8.84003C338.105 7.89709 337.014 7.42389 335.564 7.42389C334.108 7.42389 333.005 7.90096 332.256 8.8538C331.505 9.80665 331.131 11.2051 331.131 13.0488Z" fill="white"/>
<path d="M111.586 35.1396L106.196 28.4843H107.977L113.31 35.1215V28.4843H114.848V35.1215L120.191 28.4843H121.973L116.573 35.1215L122.142 42.1888H120.304L114.848 35.2425V42.1888H113.31V35.2425L107.866 42.1888H106L111.586 35.1396Z" fill="white"/>
<path d="M131.712 42.1888H124.072V28.4843H131.712V29.8996H125.666V34.3146H131.347V35.7213H125.666V40.7641H131.712V42.1888Z" fill="white"/>
<path d="M145.154 42.1888H143.56V35.7398H136.344V42.1888H134.75V28.4843H136.344V34.3146H143.56V28.4843H145.154V42.1888Z" fill="white"/>
<path d="M154.781 29.7122C153.275 29.7122 152.086 30.2138 151.214 31.2166C150.342 32.2194 149.907 33.5925 149.907 35.3363C149.907 37.1296 150.326 38.5165 151.167 39.4938C152.008 40.4712 153.205 40.9608 154.762 40.9608C155.718 40.9608 156.809 40.7886 158.033 40.4458V41.8422C157.084 42.1987 155.912 42.3761 154.518 42.3761C152.499 42.3761 150.942 41.7638 149.845 40.5393C148.749 39.3139 148.2 37.574 148.2 35.3178C148.2 33.906 148.465 32.6681 148.992 31.6059C149.52 30.5437 150.283 29.7251 151.28 29.1499C152.276 28.5755 153.45 28.287 154.799 28.287C156.237 28.287 157.492 28.5501 158.568 29.075L157.892 30.4438C156.855 29.9555 155.818 29.7122 154.781 29.7122Z" fill="white"/>
<path d="M170.886 42.1888H168.954L162.617 35.2425V42.1888H161.024V28.4843H162.617V35.1215L168.795 28.4843H170.623L164.558 35.1396L170.886 42.1888Z" fill="white"/>
<path d="M184.664 35.3173C184.664 37.511 184.11 39.2351 183 40.4923C181.891 41.7483 180.349 42.3756 178.374 42.3756C176.355 42.3756 174.798 41.759 173.702 40.5246C172.605 39.2902 172.057 37.5481 172.057 35.2984C172.057 33.0676 172.607 31.3384 173.707 30.11C174.806 28.8821 176.368 28.2681 178.394 28.2681C180.362 28.2681 181.899 28.8937 183.005 30.1436C184.111 31.3931 184.664 33.118 184.664 35.3173ZM173.744 35.3173C173.744 37.1739 174.138 38.5806 174.929 39.5408C175.72 40.4992 176.869 40.9793 178.374 40.9793C179.893 40.9793 181.039 40.5014 181.814 39.5451C182.589 38.5892 182.977 37.1799 182.977 35.3173C182.977 33.4745 182.591 32.0751 181.819 31.1232C181.047 30.1695 179.906 29.6932 178.393 29.6932C176.875 29.6932 175.72 30.1729 174.929 31.1318C174.138 32.0915 173.744 33.4861 173.744 35.3173Z" fill="white"/>
<path d="M195.36 28.4843V29.9185H189.314V42.1888H187.721V28.4843H195.36Z" fill="white"/>
<path d="M209.598 35.3173C209.598 37.511 209.044 39.2351 207.935 40.4923C206.825 41.7483 205.283 42.3756 203.308 42.3756C201.29 42.3756 199.732 41.759 198.636 40.5246C197.539 39.2902 196.991 37.5481 196.991 35.2984C196.991 33.0676 197.541 31.3384 198.641 30.11C199.74 28.8821 201.302 28.2681 203.328 28.2681C205.296 28.2681 206.834 28.8937 207.939 30.1436C209.046 31.3931 209.598 33.118 209.598 35.3173ZM198.678 35.3173C198.678 37.1739 199.073 38.5806 199.864 39.5408C200.654 40.4992 201.803 40.9793 203.308 40.9793C204.828 40.9793 205.973 40.5014 206.749 39.5451C207.523 38.5892 207.911 37.1799 207.911 35.3173C207.911 33.4745 207.525 32.0751 206.753 31.1232C205.981 30.1695 204.84 29.6932 203.327 29.6932C201.809 29.6932 200.654 30.1729 199.864 31.1318C199.073 32.0915 198.678 33.4861 198.678 35.3173Z" fill="white"/>
<path d="M118.092 64.4581H116.498V52.1693H109.459V64.4581H107.866V50.7536H118.092V64.4581Z" fill="white"/>
<path d="M130.549 54.7463C130.549 56.134 130.075 57.2018 129.129 57.9479C128.183 58.6954 126.827 59.0679 125.066 59.0679H123.452V64.4581H121.859V50.7536H125.412C128.836 50.7536 130.549 52.0845 130.549 54.7463ZM123.452 57.6995H124.888C126.3 57.6995 127.322 57.4713 127.953 57.0149C128.584 56.5589 128.9 55.8274 128.9 54.822C128.9 53.9157 128.603 53.2414 128.009 52.7971C127.415 52.3536 126.491 52.131 125.234 52.131H123.453V57.6995H123.452Z" fill="white"/>
<path d="M141.057 64.4581H133.418V50.7536H141.057V52.1693H135.011V56.5839H140.692V57.9901H135.011V63.0334H141.057V64.4581Z" fill="white"/>
<path d="M154.902 68.0293H153.384V64.4581H143.86V68.0293H142.342V63.0144H143.401C144.363 61.3959 145.187 59.4278 145.871 57.1088C146.555 54.7906 146.934 52.6722 147.01 50.7536H153.168V63.0144H154.903V68.0293H154.902ZM151.574 63.0144V52.1878H148.454C148.34 53.7 147.962 55.517 147.319 57.6379C146.675 59.7598 145.925 61.5522 145.069 63.0144H151.574Z" fill="white"/>
<path d="M167.435 64.4581H165.842V52.1693H158.802V64.4581H157.208V50.7536H167.435V64.4581Z" fill="white"/>
<path d="M179.893 54.7463C179.893 56.134 179.42 57.2018 178.472 57.9479C177.527 58.6954 176.172 59.0679 174.41 59.0679H172.798V64.4581H171.204V50.7536H174.757C178.181 50.7536 179.893 52.0845 179.893 54.7463ZM172.798 57.6995H174.232C175.645 57.6995 176.665 57.4713 177.297 57.0149C177.927 56.5589 178.244 55.8274 178.244 54.822C178.244 53.9157 177.947 53.2414 177.353 52.7971C176.759 52.3536 175.836 52.131 174.578 52.131H172.798V57.6995H172.798Z" fill="white"/>
<path d="M182.78 50.7536H184.27V58.3746C184.27 59.7809 184.227 61.0519 184.139 62.1903H184.215L191.901 50.7536H193.644V64.4581H192.145V56.9129C192.145 55.6556 192.198 54.3377 192.305 52.9573H192.22L184.524 64.4586H182.78V50.754V50.7536Z" fill="white"/>
<path d="M207.799 64.4581H206.205V58.0091H198.988V64.4581H197.394V50.7536H198.988V56.5839H206.205V50.7536H207.799V64.4581Z" fill="white"/>
<path d="M211.576 50.7536H213.067V58.3746C213.067 59.7809 213.024 61.0519 212.935 62.1903H213.011L220.698 50.7536H222.441V64.4581H220.941V56.9129C220.941 55.6556 220.994 54.3377 221.101 52.9573H221.017L213.321 64.4586H211.576V50.754V50.7536Z" fill="white"/>
<path d="M232.256 64.4581L227.606 52.3097H227.531C227.619 53.272 227.663 54.4164 227.663 55.7404V64.4581H226.19V50.7536H228.59L232.93 62.0586H233.005L237.383 50.7536H239.765V64.4581H238.171V55.6276C238.171 54.6162 238.214 53.5161 238.302 52.3286H238.227L233.54 64.4581H232.256H232.256Z" fill="white"/>
<path d="M252.138 64.4582L250.431 60.0996H244.938L243.251 64.4582H241.639L247.057 50.6973H248.398L253.788 64.4582H252.139H252.138ZM249.934 58.6658L248.341 54.4191C248.136 53.8813 247.923 53.2225 247.703 52.4411C247.566 53.0404 247.37 53.7005 247.113 54.4191L245.501 58.6658H249.934H249.934Z" fill="white"/>
<path d="M259.89 64.4581H258.296V52.1693H253.957V50.7536H264.23V52.1693H259.89V64.4581Z" fill="white"/>
<path d="M273.932 64.4581H266.292V50.7536H273.932V52.1693H267.886V56.5839H273.566V57.9901H267.886V63.0334H273.932V64.4581Z" fill="white"/>
<path d="M286.718 64.4581H285.124V52.1693H280.672L280.381 54.419C280 57.4123 279.663 59.6009 279.374 60.9856C279.082 62.3695 278.7 63.3335 278.225 63.8773C277.749 64.4211 277.119 64.6868 276.331 64.6743C275.869 64.6743 275.453 64.5959 275.084 64.4392V63.0984C275.422 63.2612 275.775 63.3425 276.143 63.3425C276.474 63.3425 276.765 63.2065 277.011 62.9348C277.258 62.6627 277.476 62.1912 277.667 61.5195C277.858 60.8478 278.098 59.5729 278.389 57.6948C278.68 55.8166 278.999 53.5032 279.35 50.7536H286.718V64.4581H286.718Z" fill="white"/>
<path d="M299.944 60.465C299.944 61.7339 299.521 62.716 298.673 63.4127C297.827 64.1098 296.619 64.4581 295.05 64.4581H290.486V50.7536H292.08V56.6029H294.807C296.474 56.6029 297.748 56.9322 298.627 57.591C299.505 58.2511 299.944 59.2082 299.944 60.4646V60.465ZM292.08 63.0807H294.881C297.156 63.0807 298.293 62.2084 298.293 60.465C298.293 59.6216 298.001 59.0011 297.417 58.6041C296.833 58.2076 295.897 58.0091 294.609 58.0091H292.079V63.0803L292.08 63.0807Z" fill="white"/>
<path d="M308.699 51.9816C307.193 51.9816 306.004 52.4832 305.132 53.486C304.26 54.4888 303.824 55.8619 303.824 57.6057C303.824 59.399 304.244 60.7858 305.085 61.7632C305.926 62.7406 307.123 63.2297 308.68 63.2297C309.636 63.2297 310.726 63.0579 311.951 62.7148V64.1115C311.002 64.468 309.83 64.6454 308.436 64.6454C306.417 64.6454 304.86 64.0332 303.763 62.8086C302.667 61.5832 302.118 59.8429 302.118 57.5871C302.118 56.1753 302.382 54.9374 302.91 53.8752C303.439 52.813 304.201 51.9945 305.197 51.4193C306.194 50.8449 307.368 50.5564 308.717 50.5564C310.155 50.5564 311.411 50.8195 312.486 51.3443L311.81 52.7127C310.773 52.2248 309.737 51.9816 308.699 51.9816Z" fill="white"/>
<path d="M319.16 64.4581H317.567V52.1693H313.227V50.7536H323.5V52.1693H319.16V64.4581Z" fill="white"/>
<path d="M325.563 50.7536H329.435C331.253 50.7536 332.567 51.0257 333.38 51.5695C334.193 52.1133 334.598 52.9723 334.598 54.1469C334.598 54.9594 334.372 55.6298 333.919 56.1576C333.466 56.6864 332.805 57.0287 331.937 57.1841V57.2788C334.017 57.6341 335.058 58.7281 335.058 60.5589C335.058 61.7834 334.644 62.7393 333.816 63.4269C332.989 64.1154 331.83 64.4581 330.344 64.4581H325.563V50.7536H325.563ZM327.157 56.6218H329.781C330.906 56.6218 331.715 56.4453 332.209 56.0918C332.703 55.7387 332.949 55.1437 332.949 54.3062C332.949 53.5372 332.674 52.9827 332.125 52.6425C331.575 52.3024 330.699 52.1314 329.499 52.1314H327.157V56.6218ZM327.157 57.9712V63.0984H330.015C331.122 63.0984 331.953 62.8848 332.514 62.4564C333.073 62.0289 333.353 61.358 333.353 60.4461C333.353 59.5957 333.066 58.971 332.494 58.5705C331.923 58.171 331.052 57.9708 329.885 57.9708H327.157V57.9712Z" fill="white"/>
<path d="M346.616 64.4582L344.911 60.0996H339.417L337.73 64.4582H336.117L341.535 50.6973H342.876L348.266 64.4582H346.616H346.616ZM344.414 58.6658L342.82 54.4191C342.613 53.8813 342.401 53.2225 342.183 52.4411C342.045 53.0404 341.848 53.7005 341.592 54.4191L339.98 58.6658H344.414H344.414Z" fill="white"/>
<path d="M106.749 81.5625L109.955 77.7468L111.071 78.3935L108.362 81.6749L111.071 84.964L109.955 85.6305L106.749 81.8148V81.5617V81.5625ZM110.452 81.5625L113.677 77.7468L114.773 78.3935L112.084 81.6749L114.773 84.964L113.677 85.6305L110.452 81.8148V81.5617V81.5625Z" fill="white"/>
<path d="M129.303 79.8566C129.303 82.0494 128.748 83.7743 127.639 85.0303C126.53 86.2862 124.987 86.9144 123.013 86.9144C120.994 86.9144 119.437 86.2983 118.341 85.0634C117.243 83.8294 116.696 82.0873 116.696 79.8376C116.696 77.6068 117.245 75.8772 118.345 74.6493C119.445 73.4213 121.007 72.8073 123.032 72.8073C125 72.8073 126.537 73.432 127.644 74.682C128.75 75.9324 129.303 77.6564 129.303 79.8566ZM118.382 79.8566C118.382 81.7119 118.777 83.1198 119.568 84.0791C120.359 85.0384 121.506 85.5185 123.012 85.5185C124.531 85.5185 125.678 85.0406 126.452 84.0843C127.227 83.1284 127.615 81.7183 127.615 79.8566C127.615 78.0124 127.23 76.6144 126.458 75.6611C125.685 74.7087 124.544 74.2312 123.031 74.2312C121.514 74.2312 120.359 74.7108 119.568 75.671C118.777 76.6299 118.382 78.0253 118.382 79.8566Z" fill="white"/>
<path d="M142.586 86.7272H140.993V74.4383H133.952V86.7272H132.358V73.0226H142.586V86.7272Z" fill="white"/>
<path d="M158.249 79.8566C158.249 82.0494 157.694 83.7743 156.585 85.0303C155.476 86.2862 153.934 86.9144 151.96 86.9144C149.941 86.9144 148.384 86.2983 147.287 85.0634C146.19 83.8294 145.642 82.0873 145.642 79.8376C145.642 77.6068 146.191 75.8772 147.291 74.6493C148.391 73.4213 149.954 72.8073 151.978 72.8073C153.947 72.8073 155.484 73.432 156.591 74.682C157.696 75.9324 158.249 77.6564 158.249 79.8566ZM147.328 79.8566C147.328 81.7119 147.723 83.1198 148.515 84.0791C149.305 85.0384 150.453 85.5185 151.959 85.5185C153.477 85.5185 154.624 85.0406 155.399 84.0843C156.175 83.1284 156.561 81.7183 156.561 79.8566C156.561 78.0124 156.176 76.6144 155.404 75.6611C154.632 74.7087 153.49 74.2312 151.977 74.2312C150.46 74.2312 149.305 74.7108 148.515 75.671C147.723 76.6299 147.328 78.0253 147.328 79.8566Z" fill="white"/>
<path d="M169.994 77.0162C169.994 78.4039 169.521 79.4704 168.574 80.2179C167.628 80.9645 166.273 81.3377 164.512 81.3377H162.898V86.7276H161.305V73.0226H164.857C168.282 73.0226 169.994 74.354 169.994 77.0162ZM162.898 79.9694H164.334C165.745 79.9694 166.767 79.7404 167.399 79.2848C168.029 78.8284 168.345 78.0973 168.345 77.0911C168.345 76.1856 168.048 75.51 167.454 75.0661C166.861 74.6222 165.936 74.4009 164.68 74.4009H162.899V79.9694H162.898Z" fill="white"/>
<path d="M181.478 86.7271L179.771 82.3681H174.278L172.591 86.7271H170.979L176.397 72.9666H177.737L183.127 86.7271H181.478H181.478ZM179.274 80.9343L177.68 76.6872C177.475 76.1507 177.263 75.491 177.044 74.7091C176.906 75.3098 176.709 75.969 176.453 76.6872L174.842 80.9343H179.274H179.274Z" fill="white"/>
<path d="M198.688 77.0162C198.688 78.4039 198.214 79.4704 197.267 80.2179C196.321 80.9645 194.966 81.3377 193.204 81.3377H191.592V86.7276H189.998V73.0226H193.551C196.975 73.0226 198.688 74.354 198.688 77.0162ZM191.592 79.9694H193.026C194.438 79.9694 195.459 79.7404 196.092 79.2848C196.722 78.8284 197.039 78.0973 197.039 77.0911C197.039 76.1856 196.742 75.51 196.147 75.0661C195.553 74.6222 194.63 74.4009 193.373 74.4009H191.592V79.9694H191.592Z" fill="white"/>
<path d="M213.451 79.8566C213.451 82.0494 212.896 83.7743 211.787 85.0303C210.678 86.2862 209.136 86.9144 207.161 86.9144C205.142 86.9144 203.586 86.2983 202.489 85.0634C201.392 83.8294 200.843 82.0873 200.843 79.8376C200.843 77.6068 201.394 75.8772 202.494 74.6493C203.593 73.4213 205.155 72.8073 207.18 72.8073C209.149 72.8073 210.686 73.432 211.793 74.682C212.898 75.9324 213.451 77.6564 213.451 79.8566ZM202.53 79.8566C202.53 81.7119 202.926 83.1198 203.717 84.0791C204.507 85.0384 205.656 85.5185 207.161 85.5185C208.68 85.5185 209.826 85.0406 210.602 84.0843C211.376 83.1284 211.763 81.7183 211.763 79.8566C211.763 78.0124 211.378 76.6144 210.605 75.6611C209.834 74.7087 208.693 74.2312 207.18 74.2312C205.661 74.2312 204.507 74.7108 203.717 75.671C202.926 76.6299 202.53 78.0253 202.53 79.8566Z" fill="white"/>
<path d="M222.376 74.2502C220.869 74.2502 219.681 74.7514 218.809 75.7546C217.937 76.7578 217.501 78.1313 217.501 79.8751C217.501 81.6684 217.921 83.054 218.762 84.0314C219.602 85.0101 220.801 85.4992 222.356 85.4992C223.312 85.4992 224.404 85.3274 225.627 84.9834V86.3806C224.678 86.7362 223.507 86.9145 222.113 86.9145C220.094 86.9145 218.537 86.3026 217.441 85.0772C216.343 83.8527 215.795 82.1128 215.795 79.8566C215.795 78.4439 216.059 77.2069 216.587 76.1447C217.115 75.0825 217.877 74.2631 218.874 73.6887C219.871 73.1131 221.044 72.8259 222.394 72.8259C223.831 72.8259 225.087 73.0881 226.163 73.613L225.487 74.9813C224.45 74.4943 223.413 74.2502 222.376 74.2502Z" fill="white"/>
<path d="M234.487 74.2502C232.981 74.2502 231.792 74.7514 230.92 75.7546C230.049 76.7578 229.613 78.1313 229.613 79.8751C229.613 81.6684 230.032 83.054 230.873 84.0314C231.714 85.0101 232.912 85.4992 234.468 85.4992C235.424 85.4992 236.515 85.3274 237.739 84.9834V86.3806C236.79 86.7362 235.618 86.9145 234.224 86.9145C232.205 86.9145 230.648 86.3026 229.551 85.0772C228.455 83.8527 227.906 82.1128 227.906 79.8566C227.906 78.4439 228.171 77.2069 228.698 76.1447C229.227 75.0825 229.989 74.2631 230.986 73.6887C231.982 73.1131 233.156 72.8259 234.505 72.8259C235.943 72.8259 237.199 73.0881 238.274 73.613L237.599 74.9813C236.561 74.4943 235.525 74.2502 234.487 74.2502Z" fill="white"/>
<path d="M240.748 73.0226H242.238V80.6437C242.238 82.0499 242.195 83.3218 242.106 84.4589H242.183L249.869 73.0226H251.612V86.7276H250.112V79.1815C250.112 77.9255 250.165 76.6067 250.273 75.2263H250.188L242.492 86.728H240.748V73.0231V73.0226Z" fill="white"/>
<path d="M255.38 73.0226H256.871V80.6437C256.871 82.0499 256.827 83.3218 256.739 84.4589H256.814L264.501 73.0226H266.244V86.7276H264.745V79.1815C264.745 77.9255 264.797 76.6067 264.905 75.2263H264.82L257.124 86.728H255.38V73.0231V73.0226Z" fill="white"/>
<path d="M273.181 81.8156L269.956 85.6313L268.859 84.9648L271.549 81.6757L268.859 78.3943L269.956 77.7476L273.181 81.5633V81.8165V81.8156ZM276.884 81.8156L273.66 85.6313L272.563 84.9648L275.253 81.6757L272.563 78.3943L273.66 77.7476L276.884 81.5633V81.8165V81.8156Z" fill="white"/>
</svg>
