<svg width="50" height="50" viewBox="0 0 50 50" fill="none" xmlns="http://www.w3.org/2000/svg">
<g id="Youtube Fill">
<path id="Vector" fill-rule="evenodd" clip-rule="evenodd" d="M42.9063 9.29163C44.8795 9.81984 46.4303 11.3705 46.9585 13.3437C47.913 16.9167 47.9168 24.3757 47.9168 24.3757C47.9168 24.3757 47.9168 31.8348 46.9585 35.4078C46.4303 37.381 44.8795 38.9317 42.9063 39.4598C39.3335 40.4181 25.0001 40.4181 25.0001 40.4181C25.0001 40.4181 10.6669 40.4181 7.09391 39.4598C5.12069 38.9317 3.57002 37.381 3.04182 35.4078C2.0835 31.8348 2.0835 24.3757 2.0835 24.3757C2.0835 24.3757 2.0835 16.9167 3.04182 13.3437C3.57002 11.3705 5.12069 9.81984 7.09391 9.29163C10.6669 8.33331 25.0001 8.33331 25.0001 8.33331C25.0001 8.33331 39.3335 8.33331 42.9063 9.29163ZM32.3197 24.3764L20.4124 31.2505V17.5021L32.3197 24.3764Z" fill="white"/>
</g>
</svg>
